<svg width="40" height="40" viewBox="0 0 40 40" fill="none" xmlns="http://www.w3.org/2000/svg">
<rect width="40" height="40" rx="8" fill="#382929"/>
<g clip-path="url(#clip0_39_161)">
<path fill-rule="evenodd" clip-rule="evenodd" d="M20 10.25C14.6152 10.25 10.25 14.6152 10.25 20C10.25 25.3848 14.6152 29.75 20 29.75C25.3848 29.75 29.75 25.3848 29.75 20C29.7443 14.6176 25.3824 10.2557 20 10.25V10.25ZM20 28.25C15.4437 28.25 11.75 24.5563 11.75 20C11.75 15.4437 15.4437 11.75 20 11.75C24.5563 11.75 28.25 15.4437 28.25 20C28.2448 24.5542 24.5542 28.2448 20 28.25V28.25ZM26 20C26 20.4142 25.6642 20.75 25.25 20.75H20C19.5858 20.75 19.25 20.4142 19.25 20V14.75C19.25 14.3358 19.5858 14 20 14C20.4142 14 20.75 14.3358 20.75 14.75V19.25H25.25C25.6642 19.25 26 19.5858 26 20V20Z" fill="white"/>
</g>
<defs>
<clipPath id="clip0_39_161">
<rect width="24" height="24" fill="white" transform="translate(8 8)"/>
</clipPath>
</defs>
</svg>
